<?xml version="1.0" encoding="utf-8"?>
<!-- Generator: Adobe Illustrator 27.5.0, SVG Export Plug-In . SVG Version: 6.00 Build 0)  -->
<svg version="1.1" xmlns="http://www.w3.org/2000/svg" xmlns:xlink="http://www.w3.org/1999/xlink" x="0px" y="0px"
	 viewBox="0 0 500 500" style="enable-background:new 0 0 500 500;" xml:space="preserve">
<g id="Background_Complete">
	<g>
		<g>
			<path style="fill:#EBEBEB;" d="M99.239,400.055c13.837-11.321,15.627-30.363,13.668-47.185c-0.327-2.809-0.257-5.804-1.816-8.162
				c-1.56-2.359-4.864-3.786-7.322-2.389c-2.038,1.159-2.763,3.668-3.784,5.778c-1.358,2.806-3.526,5.216-6.175,6.86
				c-1.741,1.081-3.942,1.835-5.816,1.006c-2.571-1.137-3.135-4.468-3.347-7.272c-0.394-5.222-0.788-10.445-1.182-15.667
				c-0.211-2.802-0.436-5.662-1.537-8.248c-1.1-2.585-3.251-4.894-6.012-5.418c-2.761-0.523-5.974,1.288-6.319,4.076
				c-0.144,1.161,0.189,2.325,0.205,3.494c0.016,1.169-0.428,2.501-1.52,2.918c-1.105,0.421-2.306-0.28-3.222-1.029
				c-3.16-2.587-5.446-6.066-7.599-9.536c-2.154-3.469-4.26-7.029-7.17-9.895s-6.787-5.007-10.869-4.899
				c-4.083,0.108-8.21,2.941-8.915,6.964c-0.707,4.033,1.955,7.847,4.757,10.834c4.155,4.432,8.956,8.258,14.203,11.321
				c0.946,0.553,1.971,1.15,2.398,2.159c0.768,1.816-0.873,3.819-2.689,4.587c-2.059,0.869-4.372,0.841-6.563,1.281
				c-2.192,0.44-4.511,1.6-5.179,3.733c-0.927,2.96,1.744,5.76,4.291,7.528c5.101,3.541,10.814,6.201,16.808,7.826
				c2.149,0.583,4.4,1.063,6.201,2.371c1.802,1.31,3.024,3.742,2.169,5.798c-0.856,2.06-3.415,2.906-5.634,2.686
				c-2.219-0.219-4.272-1.23-6.42-1.834c-4.019-1.131-9.033-0.451-11.258,3.082c-1.463,2.322-1.358,5.379-0.315,7.917
				c1.043,2.538,2.91,4.644,4.868,6.567c6.842,6.723,15.321,11.89,24.62,14.24C82.064,403.894,90.514,404.041,99.239,400.055"/>
		</g>
		<g>
			<g>
				<path style="fill:#E0E0E0;" d="M100.453,412.55c-1.17-6.629-3.303-14.396-6.533-22.691c-3.214-8.303-7.502-17.115-12.305-26.182
					c-1.21-2.262-2.405-4.496-3.583-6.699c-1.18-2.197-2.35-4.373-3.629-6.433c-2.539-4.13-5.298-7.91-8.031-11.418
					c-2.734-3.51-5.457-6.742-8.027-9.747c-2.576-3-5.03-5.752-7.376-8.165c-4.677-4.846-8.91-8.306-11.913-10.566
					c-1.501-1.135-2.693-1.979-3.508-2.541c-0.397-0.27-0.705-0.48-0.931-0.634c-0.211-0.141-0.325-0.204-0.325-0.204
					s0.097,0.087,0.3,0.239c0.219,0.161,0.52,0.383,0.907,0.667c0.798,0.585,1.974,1.449,3.457,2.603
					c2.969,2.298,7.16,5.784,11.797,10.644c2.327,2.421,4.763,5.179,7.324,8.186c2.555,3.013,5.265,6.25,7.985,9.759
					c2.72,3.506,5.465,7.28,7.986,11.395c1.27,2.052,2.43,4.213,3.611,6.416c1.178,2.202,2.371,4.436,3.58,6.697
					c4.801,9.061,9.09,17.851,12.316,26.126c3.241,8.267,5.398,16,6.603,22.602"/>
			</g>
		</g>
		<g>
			<g>
				<path style="fill:#E0E0E0;" d="M74.293,350.512c0.029,0.002,0.085-0.432,0.16-1.219c0.079-0.787,0.16-1.928,0.241-3.339
					c0.164-2.822,0.263-6.726,0.361-11.031c0.098-4.308,0.265-8.201,0.49-11.012c0.108-1.406,0.21-2.544,0.292-3.328
					c0.077-0.785,0.107-1.222,0.077-1.227c-0.029-0.004-0.113,0.425-0.241,1.206c-0.133,0.78-0.28,1.916-0.427,3.322
					c-0.304,2.813-0.518,6.718-0.616,11.029c-0.091,4.268-0.174,8.13-0.236,11.029c-0.043,1.351-0.079,2.474-0.107,3.341
					C74.264,350.071,74.264,350.509,74.293,350.512z"/>
			</g>
		</g>
		<g>
			<g>
				<path style="fill:#E0E0E0;" d="M37.259,346.789c0.001,0.015,0.132,0.024,0.38,0.03c0.299,0.001,0.657,0.002,1.088,0.003
					c0.944-0.002,2.308-0.007,3.994,0.043c3.371,0.071,8.025,0.338,13.145,0.86c5.12,0.532,9.732,1.212,13.052,1.805
					c1.662,0.285,3.001,0.553,3.927,0.734c0.423,0.081,0.775,0.148,1.068,0.204c0.245,0.042,0.376,0.057,0.38,0.043
					c0.003-0.014-0.121-0.057-0.36-0.126c-0.288-0.077-0.635-0.17-1.051-0.281c-0.916-0.231-2.248-0.545-3.908-0.869
					c-3.313-0.669-7.932-1.399-13.065-1.932c-5.131-0.523-9.802-0.744-13.184-0.738c-1.69-0.01-3.058,0.039-4.002,0.092
					c-0.431,0.03-0.788,0.055-1.086,0.076C37.389,346.756,37.258,346.775,37.259,346.789z"/>
			</g>
		</g>
		<g>
			<g>
				<path style="fill:#E0E0E0;" d="M93.459,389.217c0.014,0.005,0.084-0.155,0.204-0.463c0.133-0.353,0.301-0.803,0.51-1.357
					c0.438-1.18,1.031-2.902,1.736-5.039c1.414-4.272,3.186-10.233,5.057-16.835c1.873-6.604,3.597-12.571,4.936-16.862
					c0.666-2.104,1.211-3.826,1.606-5.077c0.177-0.565,0.321-1.023,0.433-1.381c0.095-0.318,0.138-0.487,0.124-0.492
					c-0.014-0.005-0.084,0.155-0.205,0.463c-0.132,0.352-0.3,0.802-0.509,1.357c-0.438,1.18-1.03,2.902-1.735,5.038
					c-1.415,4.272-3.187,10.233-5.059,16.837c-1.872,6.602-3.596,12.568-4.935,16.86c-0.666,2.104-1.211,3.826-1.606,5.077
					c-0.177,0.565-0.321,1.023-0.433,1.382C93.489,389.043,93.445,389.212,93.459,389.217z"/>
			</g>
		</g>
		<g>
			<g>
				<path style="fill:#E0E0E0;" d="M43.716,377.792c-0.003,0.014,0.169,0.064,0.499,0.147c0.375,0.088,0.855,0.201,1.448,0.34
					c1.311,0.3,3.12,0.713,5.332,1.217c4.499,1.033,10.698,2.536,17.541,4.214c6.846,1.678,13.06,3.137,17.58,4.096
					c2.26,0.481,4.092,0.852,5.362,1.085c0.601,0.108,1.086,0.195,1.464,0.263c0.336,0.055,0.513,0.077,0.517,0.063
					c0.003-0.015-0.169-0.064-0.5-0.147c-0.374-0.088-0.854-0.201-1.447-0.34c-1.311-0.3-3.119-0.712-5.331-1.217
					c-4.5-1.033-10.699-2.538-17.545-4.215c-6.844-1.677-13.058-3.136-17.577-4.095c-2.26-0.48-4.092-0.852-5.363-1.086
					c-0.6-0.108-1.085-0.195-1.465-0.263C43.897,377.799,43.719,377.777,43.716,377.792z"/>
			</g>
		</g>
	</g>
	<g>
		<g>
			
				<rect x="164.05" y="124.094" transform="matrix(0.9576 -0.2881 0.2881 0.9576 -34.5266 64.4813)" style="fill:#FFFFFF;" width="75.502" height="50.891"/>
			<g>
				<path style="fill:#E0E0E0;" d="M245.282,163.029c0,0-0.108-0.308-0.291-0.891c-0.186-0.599-0.452-1.457-0.799-2.574
					c-0.695-2.268-1.709-5.574-3.004-9.799c-2.574-8.465-6.268-20.612-10.768-35.409l0.259,0.139
					c-19.951,6.018-45.065,13.592-72.28,21.801l-0.006,0.002l0.174-0.324c5.219,17.373,10.18,33.889,14.641,48.739l-0.297-0.16
					c21.282-6.353,39.338-11.743,52.091-15.55c6.38-1.891,11.433-3.388,14.909-4.419c1.725-0.506,3.056-0.896,3.976-1.166
					c0.443-0.127,0.784-0.225,1.032-0.296C245.155,163.058,245.282,163.029,245.282,163.029s-0.104,0.041-0.326,0.113
					c-0.24,0.076-0.57,0.18-0.998,0.315c-0.906,0.279-2.215,0.684-3.914,1.208c-3.456,1.055-8.478,2.589-14.82,4.526
					c-12.774,3.873-30.858,9.357-52.173,15.82l-0.228,0.069l-0.069-0.229c-4.474-14.846-9.449-31.358-14.683-48.727l-0.075-0.249
					l0.25-0.075l0.006-0.002c27.226-8.171,52.351-15.711,72.31-21.701l0.2-0.06l0.059,0.2c4.428,14.875,8.062,27.086,10.595,35.596
					c1.245,4.219,2.22,7.52,2.888,9.785c0.322,1.107,0.57,1.957,0.743,2.551C245.212,162.742,245.282,163.029,245.282,163.029z"/>
			</g>
		</g>
		<g>
			<path style="fill:#E0E0E0;" d="M230.62,114.296c0.007,0.004-0.027,0.079-0.1,0.22c-0.091,0.166-0.202,0.37-0.339,0.62
				c-0.328,0.576-0.777,1.364-1.345,2.363c-1.211,2.08-2.927,5.029-5.045,8.668c-4.33,7.342-10.295,17.46-16.944,28.735l-0.112,0.19
				l-0.206-0.08c-0.701-0.272-1.455-0.564-2.213-0.857c-12.701-4.955-24.197-9.439-32.565-12.703
				c-4.128-1.637-7.481-2.967-9.847-3.905c-1.128-0.46-2.019-0.822-2.668-1.086c-0.279-0.119-0.506-0.216-0.689-0.295
				c-0.154-0.069-0.232-0.109-0.228-0.117c0.003-0.008,0.087,0.014,0.248,0.067c0.188,0.066,0.421,0.147,0.708,0.247
				c0.657,0.242,1.56,0.574,2.703,0.995c2.38,0.901,5.754,2.179,9.907,3.751c8.382,3.228,19.897,7.662,32.62,12.561
				c0.758,0.294,1.512,0.586,2.213,0.858l-0.318,0.11c6.703-11.243,12.717-21.332,17.082-28.654
				c2.177-3.604,3.941-6.525,5.185-8.585c0.603-0.978,1.08-1.751,1.427-2.314c0.154-0.24,0.279-0.435,0.382-0.594
				C230.564,114.357,230.613,114.292,230.62,114.296z"/>
		</g>
	</g>
	<g>
		<path style="fill:#EBEBEB;" d="M440.969,308.948c0,0-4.685-4.642-13.833,6.952c-9.149,11.595-13.124,18.541-13.124,18.541
			s-2.277,2.358-3.782,0.22c-1.505-2.137-3.05-7.658-6.387-7.384c-3.461,0.284-5.267,3.723-5.713,9.217
			c-0.446,5.494-1.864,17.495-1.996,18.579c-0.13,1.065-1.039,2.491-2.297,1.199s-7.786-12.305-12.827-8.896
			c-5.041,3.41-3.767,18.919-3.661,20.617c0.107,1.698-0.346,2.324-1.192,2.571c-0.846,0.246-2.691-3.662-4.675-6.719
			c-1.985-3.056-4.822-6.253-7.565-4.041c-2.743,2.211-5.646,13.079,1.268,33.05l3.81,9.044l9.759,1.388
			c21.065,1.697,30.861-3.833,32.316-7.042c1.454-3.209-2.35-5.157-5.806-6.313s-7.702-1.965-7.675-2.845
			c0.027-0.88,0.52-1.475,2.191-1.797c1.671-0.322,17.005-2.97,19.045-8.703c2.04-5.734-10.257-9.297-11.822-10.193
			c-1.566-0.895-0.413-2.132,0.586-2.524c1.017-0.4,12.281-4.776,17.489-6.582c5.208-1.806,8.085-4.416,7.494-7.837
			c-0.57-3.299-6.302-3.413-8.748-4.336c-2.446-0.922-0.733-3.717-0.733-3.717s5.73-5.587,14.667-17.345
			c8.937-11.759,3.11-15.189,3.11-15.189"/>
		<g>
			<path style="fill:#E0E0E0;" d="M432.758,319.318c0.007,0.005-0.047,0.091-0.159,0.254c-0.132,0.184-0.3,0.419-0.51,0.713
				c-0.48,0.65-1.15,1.558-2.002,2.712c-1.745,2.351-4.299,5.73-7.475,9.892c-6.349,8.324-15.231,19.738-25.096,32.299
				c-9.84,12.567-18.746,23.941-25.218,32.208c-3.194,4.111-5.786,7.448-7.605,9.789c-0.885,1.129-1.581,2.017-2.079,2.653
				c-0.227,0.281-0.409,0.506-0.551,0.682c-0.127,0.152-0.195,0.227-0.202,0.222c-0.007-0.006,0.047-0.091,0.16-0.254
				c0.132-0.184,0.3-0.419,0.51-0.713c0.479-0.65,1.15-1.557,2.002-2.712c1.745-2.351,4.299-5.73,7.475-9.891
				c6.349-8.324,15.232-19.739,25.1-32.305c9.836-12.563,18.741-23.936,25.214-32.203c3.194-4.111,5.786-7.448,7.605-9.79
				c0.885-1.129,1.582-2.018,2.08-2.653c0.227-0.281,0.409-0.506,0.551-0.682C432.682,319.388,432.751,319.313,432.758,319.318z"/>
		</g>
		<g>
			<path style="fill:#E0E0E0;" d="M405.693,335.087c0.069-0.006,0.221,0.994,0.37,2.619c0.149,1.625,0.282,3.876,0.372,6.361
				c0.065,2.391,0.124,4.553,0.173,6.362c0.036,1.627,0.071,2.633-0.003,2.64c-0.069,0.007-0.234-0.993-0.365-2.621
				c-0.133-1.627-0.237-3.878-0.326-6.362c-0.082-2.388-0.156-4.549-0.219-6.357C405.641,336.102,405.619,335.093,405.693,335.087z"
				/>
		</g>
		<g>
			<path style="fill:#E0E0E0;" d="M407.454,353.417c-0.012-0.143,4.611-0.646,10.325-1.123c5.715-0.477,10.357-0.747,10.369-0.604
				c0.012,0.143-4.61,0.646-10.326,1.123C412.109,353.289,407.466,353.56,407.454,353.417z"/>
		</g>
		<g>
			<path style="fill:#E0E0E0;" d="M390.861,372.704c0.018-0.073,1.031,0.113,2.663,0.426c1.633,0.309,3.885,0.74,6.386,1.138
				c2.501,0.404,4.775,0.703,6.423,0.917c1.648,0.214,2.668,0.354,2.663,0.428c-0.005,0.069-1.037,0.059-2.7-0.062
				c-1.662-0.121-3.955-0.363-6.468-0.769c-2.513-0.4-4.765-0.891-6.383-1.293C391.828,373.083,390.845,372.771,390.861,372.704z"/>
		</g>
		<g>
			<path style="fill:#E0E0E0;" d="M385.618,356.475c0.068-0.023,0.434,0.857,0.97,2.299c0.536,1.441,1.242,3.444,1.991,5.666
				c0.75,2.223,1.401,4.245,1.847,5.716s0.689,2.393,0.62,2.416c-0.068,0.023-0.434-0.857-0.969-2.298
				c-0.536-1.441-1.242-3.444-1.992-5.667c-0.749-2.222-1.4-4.243-1.847-5.715C385.792,357.42,385.55,356.498,385.618,356.475z"/>
		</g>
		<g>
			<path style="fill:#E0E0E0;" d="M368.806,371.642c0.068-0.024,0.53,1.106,1.222,2.951c0.692,1.845,1.614,4.406,2.601,7.245
				c0.988,2.84,1.855,5.42,2.458,7.296c0.603,1.876,0.942,3.048,0.874,3.072c-0.068,0.023-0.53-1.106-1.221-2.951
				c-0.692-1.845-1.614-4.406-2.602-7.246c-0.988-2.839-1.854-5.419-2.457-7.295C369.077,372.837,368.738,371.665,368.806,371.642z"
				/>
		</g>
		<g>
			<path style="fill:#E0E0E0;" d="M375.928,391.666c0.014-0.074,1.306,0.122,3.39,0.448c2.084,0.323,4.961,0.773,8.148,1.192
				c3.188,0.425,6.082,0.745,8.179,0.973c2.096,0.229,3.394,0.377,3.389,0.451c-0.005,0.069-1.312,0.051-3.421-0.084
				c-2.108-0.135-5.018-0.398-8.215-0.824c-3.197-0.421-6.074-0.93-8.145-1.346C377.182,392.056,375.914,391.733,375.928,391.666z"
				/>
		</g>
	</g>
	<g>
		
			<rect x="385.214" y="221.902" transform="matrix(0.0305 -0.9995 0.9995 0.0305 160.9328 666.4239)" style="fill:#F5F5F5;" width="77.587" height="56.698"/>
		<g>
			<g>
				
					<rect x="374.774" y="232.204" transform="matrix(0.0305 -0.9995 0.9995 0.0305 140.5151 665.9767)" style="fill:#FFFFFF;" width="77.587" height="56.698"/>
				<g>
					<path style="fill:#E0E0E0;" d="M440.72,300.194c0,0-0.005-0.133-0.002-0.381c0.005-0.263,0.011-0.625,0.02-1.097
						c0.023-0.978,0.057-2.397,0.101-4.237c0.099-3.709,0.242-9.104,0.423-15.93c0.388-13.648,0.939-33.006,1.59-55.914l0.229,0.243
						c-17.066-0.514-36.339-1.094-56.666-1.706l-0.006,0l0.268-0.252c-0.902,28.967-1.738,55.785-2.416,77.549l-0.206-0.219
						c17.144,0.57,31.283,1.039,41.155,1.367c4.934,0.174,8.797,0.31,11.448,0.404c1.31,0.051,2.317,0.089,3.015,0.116
						C440.356,300.167,440.72,300.194,440.72,300.194s-0.334,0.005-1.004-0.008c-0.69-0.016-1.684-0.038-2.977-0.067
						c-2.64-0.068-6.489-0.167-11.403-0.294c-9.905-0.276-24.092-0.671-41.294-1.15l-0.212-0.006l0.006-0.213
						c0.651-21.765,1.453-48.584,2.32-77.552l0.008-0.26l0.26,0.008l0.006,0c20.327,0.629,39.598,1.226,56.664,1.755l0.236,0.007
						l-0.008,0.236c-0.749,22.968-1.382,42.376-1.829,56.06c-0.235,6.801-0.42,12.177-0.548,15.872
						c-0.068,1.82-0.12,3.222-0.156,4.189c-0.02,0.46-0.035,0.814-0.046,1.07C440.732,300.079,440.72,300.194,440.72,300.194z"/>
				</g>
			</g>
			<g>
				<path style="fill:#E0E0E0;" d="M420.955,238.862c-0.004,0.144-6.173,0.072-13.777-0.16c-7.606-0.232-13.767-0.537-13.763-0.681
					c0.004-0.144,6.172-0.072,13.779,0.16C414.797,238.414,420.959,238.718,420.955,238.862z"/>
			</g>
			<g>
				<path style="fill:#E0E0E0;" d="M435.644,246.055c-0.004,0.144-9.508-0.03-21.224-0.388c-11.72-0.358-21.215-0.764-21.211-0.908
					c0.004-0.144,9.506,0.03,21.227,0.388C426.152,245.505,435.648,245.912,435.644,246.055z"/>
			</g>
			<g>
				<path style="fill:#E0E0E0;" d="M435.429,253.085c-0.004,0.144-9.508-0.03-21.224-0.387c-11.72-0.358-21.215-0.764-21.211-0.908
					c0.004-0.144,9.506,0.03,21.226,0.388C425.937,252.535,435.434,252.942,435.429,253.085z"/>
			</g>
			<g>
				<path style="fill:#E0E0E0;" d="M435.215,260.116c-0.004,0.144-9.508-0.03-21.224-0.387c-11.72-0.358-21.215-0.764-21.211-0.908
					c0.004-0.144,9.506,0.03,21.227,0.388C425.722,259.565,435.219,259.972,435.215,260.116z"/>
			</g>
			<g>
				<path style="fill:#E0E0E0;" d="M435,267.146c-0.004,0.144-9.508-0.03-21.224-0.388c-11.72-0.358-21.215-0.764-21.211-0.908
					c0.004-0.144,9.506,0.03,21.226,0.388C425.508,266.595,435.004,267.002,435,267.146z"/>
			</g>
			<g>
				<path style="fill:#E0E0E0;" d="M434.785,274.176c-0.004,0.144-9.508-0.03-21.225-0.388c-11.72-0.358-21.215-0.764-21.21-0.908
					c0.004-0.144,9.506,0.03,21.226,0.388C425.293,273.626,434.79,274.032,434.785,274.176z"/>
			</g>
			<g>
				<path style="fill:#E0E0E0;" d="M434.571,281.206c-0.004,0.144-9.508-0.03-21.224-0.387c-11.72-0.358-21.215-0.764-21.211-0.908
					c0.004-0.144,9.506,0.03,21.227,0.388C425.078,280.656,434.575,281.062,434.571,281.206z"/>
			</g>
			<g>
				<path style="fill:#E0E0E0;" d="M414.73,287.637c-0.004,0.144-5.114,0.104-11.412-0.088c-6.3-0.192-11.402-0.465-11.397-0.609
					c0.004-0.144,5.113-0.104,11.413,0.088C409.632,287.221,414.735,287.493,414.73,287.637z"/>
			</g>
		</g>
	</g>
	<g>
		<g>
			<g>
				
					<rect x="269.743" y="172.746" transform="matrix(0.3699 -0.9291 0.9291 0.3699 -3.2809 400.6139)" style="fill:#FFFFFF;" width="47.936" height="59.96"/>
				<g>
					<path style="fill:#E0E0E0;" d="M330.431,191.548c0,0-0.093-0.033-0.269-0.101c-0.178-0.07-0.438-0.171-0.78-0.305
						c-0.689-0.272-1.703-0.672-3.025-1.193c-2.643-1.046-6.507-2.576-11.407-4.516c-9.788-3.885-23.71-9.411-40.26-15.981
						l0.118-0.051c-5.274,13.256-11.322,28.454-17.72,44.535l-0.002,0.005l-0.057-0.132c20.622,8.217,39.787,15.854,55.701,22.196
						l-0.109,0.047c5.361-13.414,9.804-24.533,12.908-32.302c1.557-3.886,2.779-6.934,3.612-9.013
						c0.418-1.038,0.738-1.833,0.955-2.373C330.313,191.827,330.431,191.548,330.431,191.548s-0.102,0.273-0.311,0.807
						c-0.212,0.538-0.524,1.331-0.931,2.365c-0.823,2.079-2.028,5.126-3.565,9.012c-3.09,7.788-7.512,18.935-12.847,32.384
						l-0.031,0.078l-0.078-0.031c-15.917-6.332-35.087-13.958-55.713-22.164l-0.094-0.037l0.038-0.094l0.002-0.005
						c6.406-16.079,12.46-31.274,17.74-44.527l0.034-0.084l0.084,0.034c16.559,6.613,30.488,12.176,40.281,16.087
						c4.884,1.956,8.736,3.498,11.37,4.553c1.31,0.527,2.317,0.932,3,1.206c0.336,0.136,0.592,0.24,0.767,0.311
						C330.348,191.51,330.431,191.548,330.431,191.548z"/>
				</g>
			</g>
		</g>
		
			<rect x="272.69" y="174.875" transform="matrix(0.3699 -0.9291 0.9291 0.3699 -3.3474 400.5625)" style="fill:#EBEBEB;" width="41.901" height="55.748"/>
		<polygon style="fill:#E0E0E0;" points="260.201,212.024 287.926,195.028 293.104,214.629 303.927,209.562 311.995,232.645 		"/>
		<g>
			<g>
				<path style="fill:#E0E0E0;" d="M305.069,198.42c-0.897,2.252-3.449,3.351-5.702,2.454c-2.252-0.897-3.351-3.449-2.454-5.702
					c0.897-2.252,3.449-3.351,5.702-2.454C304.867,193.615,305.966,196.167,305.069,198.42z"/>
			</g>
		</g>
	</g>
	<g>
		<g>
			<path style="fill:#E0E0E0;" d="M129.454,240.858c0.008-0.045,0.386,0.265,1.187,0.196c0.388-0.048,0.876-0.221,1.276-0.637
				c0.382-0.414,0.657-1.072,1.056-1.724c1.549-2.704,3.76-6.563,6.485-11.319c0.688-1.194,1.408-2.443,2.158-3.745
				c0.376-0.651,0.759-1.315,1.149-1.992c0.187-0.343,0.423-0.676,0.528-1.005c0.11-0.341,0.123-0.715,0.03-1.066
				c-0.095-0.35-0.293-0.673-0.575-0.907c-0.269-0.217-0.681-0.406-1.033-0.615c-0.73-0.408-1.472-0.823-2.225-1.244
				c-1.505-0.843-3.054-1.71-4.643-2.598c-6.353-3.566-13.332-7.482-20.659-11.594c-0.806-0.473-1.924-0.165-2.429,0.607
				c-0.521,0.89-1.038,1.774-1.551,2.651c-1.03,1.769-2.044,3.511-3.041,5.224c-1.996,3.423-3.922,6.724-5.757,9.871
				c-0.229,0.393-0.458,0.784-0.684,1.172c-0.23,0.36-0.334,0.743-0.322,1.142c0.018,0.393,0.157,0.779,0.407,1.074
				c0.23,0.307,0.605,0.469,0.99,0.695c1.501,0.849,2.958,1.674,4.368,2.471c2.815,1.596,5.438,3.084,7.836,4.443
				c4.76,2.717,8.623,4.921,11.329,6.466c1.308,0.76,2.336,1.356,3.067,1.781c0.328,0.197,0.589,0.353,0.791,0.475
				C129.37,240.79,129.458,240.85,129.454,240.858c-0.004,0.008-0.102-0.037-0.287-0.131c-0.209-0.11-0.478-0.252-0.816-0.43
				c-0.743-0.404-1.786-0.973-3.115-1.696c-2.725-1.51-6.616-3.666-11.41-6.322c-2.408-1.343-5.042-2.812-7.868-4.388
				c-1.414-0.79-2.875-1.607-4.381-2.449c-0.352-0.207-0.809-0.4-1.122-0.798c-0.317-0.374-0.495-0.859-0.519-1.351
				c-0.025-0.488,0.126-1.003,0.38-1.401c0.225-0.389,0.452-0.78,0.68-1.174c1.827-3.151,3.743-6.458,5.73-9.886
				c0.995-1.714,2.007-3.458,3.035-5.228c0.52-0.889,1.044-1.784,1.571-2.686c0.639-0.977,2.061-1.38,3.113-0.766
				c7.319,4.125,14.292,8.054,20.639,11.63c1.585,0.895,3.13,1.769,4.632,2.617c0.751,0.424,1.49,0.843,2.219,1.255
				c0.364,0.221,0.721,0.371,1.097,0.668c0.351,0.295,0.596,0.7,0.71,1.133c0.112,0.434,0.093,0.892-0.044,1.307
				c-0.147,0.429-0.386,0.742-0.571,1.083c-0.395,0.674-0.782,1.335-1.162,1.984c-0.76,1.296-1.49,2.54-2.187,3.728
				c-2.785,4.721-5.045,8.552-6.628,11.236c-0.418,0.649-0.686,1.277-1.121,1.731c-0.442,0.434-0.966,0.599-1.376,0.632
				c-0.417,0.026-0.729-0.065-0.921-0.146C129.536,240.931,129.454,240.858,129.454,240.858z"/>
		</g>
		<polygon style="fill:#E0E0E0;" points="124.169,220.357 126.689,224.832 121.49,224.927 116.29,225.023 118.969,220.452 
			121.648,215.881 		"/>
	</g>
</g>
<g id="Background_Simple" style="display:none;">
	<path style="display:inline;fill:#EBEBEB;" d="M127.604,317.398c-19.08-4.689-34.231-21.445-38.453-40.634
		c-4.222-19.188,1.989-40.022,14.888-54.842c12.899-14.82,31.95-23.715,51.495-25.719c25.192-2.584,52.462,5.287,74.937-6.382
		c16.251-8.438,26.038-25.226,38.142-38.966c16.339-18.548,38.55-32.456,62.97-36.279c24.42-3.823,50.897,3.227,68.388,20.692
		c15.089,15.066,23.224,36.227,25.616,57.416c9.199,81.491-49.626,141.558-81.665,159.431
		c-23.592,13.161-59.176,12.768-86.172,11.737c-30.588-1.169-61.415-4.624-90.245-14.909c-28.83-10.286-55.722-27.883-73.095-53.086
		"/>
</g>
<g id="Table">
	<g>
		<g>
			<path style="fill:#263238;" d="M463.301,411.018c0,0.153-95.647,0.276-213.606,0.276c-118,0-213.626-0.124-213.626-0.276
				c0-0.152,95.626-0.276,213.626-0.276C367.654,410.742,463.301,410.866,463.301,411.018z"/>
		</g>
	</g>
</g>
<g id="Character">
	<g>
		<g>
			<path style="fill:#E8505B;" d="M141.813,347.486l-30.196-30.326l15.182-27.884c15.182-19.433,47.317-18.181,47.317-18.181
				s21.869-2.106,47.394,2.861c25.525,4.967,23.47,21.86,23.47,21.86l3.42,62.572l3.666,50.949l-94.148,1.898L141.813,347.486"/>
			<path style="fill:#E8505B;" d="M192.529,408.302l-84.325,1.033c-20.264,0.248-33.782-20.818-25.113-39.136l36.056-66.867
				l32.842,22.202l-22.402,46.494l68.265,1.218L192.529,408.302z"/>
			<path style="fill:#E8505B;" d="M241.965,285.659l67.671,104.478l-39.479,2.582c0,0-23.576-37.153-23.043-36.384
				C248.078,357.725,241.965,285.659,241.965,285.659z"/>
			<path style="fill:#E8505B;" d="M139.137,351.976"/>
			<g>
				<path style="fill:#263238;" d="M150.296,331.536c-0.017-0.005,0.016-0.19,0.094-0.537c0.096-0.403,0.214-0.904,0.359-1.514
					c0.313-1.314,0.767-3.214,1.244-5.579c0.474-2.364,0.979-5.194,1.324-8.359c0.319-3.161,0.52-6.68,0.036-10.304
					c-0.538-3.612-1.895-6.886-3.493-9.618c-1.596-2.744-3.393-4.995-5.023-6.762c-1.631-1.768-3.071-3.09-4.097-3.963
					c-1.023-0.878-1.607-1.345-1.581-1.38c0.011-0.014,0.169,0.086,0.46,0.291c0.286,0.211,0.727,0.501,1.25,0.932
					c1.071,0.829,2.557,2.117,4.237,3.868c1.678,1.75,3.525,4,5.168,6.77c1.643,2.757,3.044,6.088,3.595,9.787
					c0.493,3.698,0.272,7.248-0.075,10.43c-0.374,3.185-0.919,6.02-1.441,8.383c-0.525,2.363-1.035,4.254-1.408,5.554
					c-0.187,0.65-0.341,1.152-0.454,1.49C150.38,331.365,150.313,331.541,150.296,331.536z"/>
			</g>
			<g>
				<path style="fill:#263238;" d="M147.584,335.139c0.033,0.015-0.176,0.552-0.58,1.511c-0.404,0.959-1.01,2.338-1.774,4.035
					c-1.528,3.393-3.703,8.052-6.204,13.15c-2.503,5.099-4.857,9.67-6.607,12.955c-0.874,1.642-1.594,2.965-2.106,3.871
					c-0.511,0.907-0.808,1.4-0.84,1.384c-0.032-0.017,0.205-0.542,0.661-1.478c0.503-1.013,1.162-2.342,1.958-3.946
					c1.694-3.409,3.961-7.971,6.467-13.015c2.456-5.067,4.677-9.65,6.337-13.076c0.782-1.611,1.429-2.946,1.923-3.964
					C147.28,335.633,147.551,335.125,147.584,335.139z"/>
			</g>
			<g>
				<path style="fill:#263238;" d="M192.529,408.302c-0.007-0.001-0.006-0.06,0.001-0.176c0.011-0.139,0.025-0.306,0.042-0.514
					c0.049-0.485,0.115-1.148,0.2-1.993c0.195-1.776,0.475-4.312,0.826-7.502c0.747-6.464,1.798-15.57,3.037-26.299l0.236,0.266
					c-7.586,0.007-16.027,0.014-24.909,0.022c-17.006-0.03-32.398-0.057-43.58-0.076c-5.55-0.035-10.053-0.063-13.206-0.083
					c-1.532-0.021-2.735-0.037-3.59-0.049c-0.387-0.011-0.695-0.019-0.934-0.026c-0.21-0.009-0.318-0.018-0.318-0.027
					c0-0.009,0.108-0.018,0.318-0.027c0.239-0.007,0.546-0.015,0.934-0.026c0.856-0.012,2.059-0.028,3.59-0.049
					c3.154-0.02,7.656-0.048,13.206-0.083c11.182-0.02,26.574-0.047,43.58-0.076c8.882,0.008,17.323,0.016,24.909,0.022l0.269,0
					l-0.033,0.266c-1.316,10.72-2.432,19.819-3.225,26.277c-0.408,3.183-0.732,5.714-0.959,7.486
					c-0.116,0.841-0.207,1.502-0.274,1.984c-0.032,0.206-0.058,0.372-0.08,0.509C192.549,408.245,192.536,408.302,192.529,408.302z"
					/>
			</g>
			<g>
				<path style="fill:#263238;" d="M130.181,372.741c-0.071,0.044-0.646-0.814-1.683-2.107c-1.034-1.295-2.573-2.997-4.499-4.629
					c-1.932-1.627-3.868-2.859-5.318-3.662c-1.449-0.806-2.391-1.229-2.359-1.306c0.021-0.056,1.017,0.247,2.53,0.979
					c1.511,0.729,3.517,1.934,5.483,3.59c1.962,1.661,3.485,3.436,4.457,4.804C129.766,371.779,130.232,372.71,130.181,372.741z"/>
			</g>
			<g>
				<path style="fill:#263238;" d="M249.798,379.357c-0.018,0.002-0.063-0.296-0.134-0.864c-0.07-0.615-0.164-1.444-0.282-2.488
					c-0.231-2.163-0.541-5.294-0.875-9.168c-0.684-7.747-1.473-18.462-2.176-30.306c-0.701-11.848-1.19-22.581-1.472-30.352
					c-0.144-3.885-0.236-7.03-0.285-9.204c-0.017-1.051-0.031-1.885-0.042-2.504c-0.004-0.572,0.003-0.873,0.021-0.874
					c0.018-0.001,0.046,0.299,0.084,0.87c0.034,0.617,0.081,1.451,0.139,2.5c0.109,2.221,0.262,5.35,0.45,9.196
					c0.375,7.765,0.923,18.492,1.623,30.337c0.703,11.84,1.434,22.555,2.023,30.306c0.297,3.839,0.538,6.962,0.71,9.18
					c0.077,1.048,0.139,1.881,0.185,2.497C249.806,379.054,249.816,379.355,249.798,379.357z"/>
			</g>
			<g>
				<path style="fill:#E0E0E0;" d="M174.525,322.508c-0.029-0.004,0.01-0.484,0.107-1.366c0.115-0.954,0.269-2.223,0.457-3.782
					c0.439-3.302,1.04-7.824,1.736-13.059l0.388,0.238c-2.015,1.411-4.201,2.941-6.47,4.53c-2.31,1.607-4.534,3.154-6.582,4.578
					l-0.474,0.33l0.087-0.569c0.794-5.191,1.48-9.672,1.98-12.943c0.254-1.539,0.461-2.791,0.617-3.733
					c0.153-0.868,0.249-1.336,0.278-1.332c0.029,0.004-0.013,0.48-0.114,1.356c-0.12,0.947-0.279,2.206-0.474,3.754
					c-0.454,3.278-1.076,7.767-1.796,12.97l-0.387-0.239c2.044-1.431,4.263-2.985,6.568-4.599c2.274-1.582,4.465-3.105,6.484-4.51
					l0.471-0.328l-0.083,0.566c-0.77,5.225-1.435,9.738-1.92,13.033c-0.247,1.552-0.449,2.814-0.6,3.762
					C174.648,322.04,174.553,322.512,174.525,322.508z"/>
			</g>
			<g>
				<path style="fill:#E0E0E0;" d="M212.157,326.564c-0.021,0.02-0.366-0.317-0.982-0.956c-0.66-0.698-1.538-1.627-2.617-2.769
					c-2.258-2.448-5.352-5.801-8.933-9.682l0.431-0.146c-0.203,2.452-0.423,5.111-0.652,7.871c-0.241,2.804-0.473,5.503-0.687,7.988
					l-0.049,0.576l-0.382-0.431c-3.485-3.929-6.492-7.32-8.688-9.796c-1.021-1.18-1.852-2.139-2.477-2.86
					c-0.57-0.672-0.868-1.046-0.847-1.065c0.021-0.019,0.361,0.317,0.97,0.954c0.651,0.697,1.518,1.624,2.583,2.764
					c2.23,2.444,5.286,5.792,8.826,9.671l-0.431,0.145c0.206-2.486,0.429-5.186,0.662-7.99c0.237-2.76,0.466-5.418,0.676-7.869
					l0.049-0.572l0.382,0.426c3.526,3.932,6.572,7.328,8.796,9.808c1.035,1.182,1.877,2.144,2.51,2.866
					C211.876,326.171,212.178,326.545,212.157,326.564z"/>
			</g>
			<g>
				<path style="fill:#E0E0E0;" d="M231.102,325.225c0.024,0.016-0.215,0.433-0.679,1.19c-0.51,0.814-1.19,1.896-2.025,3.227
					c-1.803,2.8-4.273,6.636-7.133,11.076l-0.249-0.381c2.424-0.418,5.054-0.872,7.783-1.343c2.775-0.47,5.446-0.922,7.905-1.339
					l0.57-0.096l-0.321,0.478c-2.93,4.359-5.458,8.12-7.304,10.866c-0.886,1.285-1.606,2.329-2.148,3.115
					c-0.508,0.72-0.794,1.103-0.819,1.087c-0.024-0.016,0.216-0.429,0.68-1.178c0.511-0.806,1.192-1.877,2.028-3.194
					c1.807-2.772,4.281-6.569,7.149-10.969l0.248,0.381c-2.458,0.424-5.128,0.885-7.901,1.363c-2.731,0.462-5.362,0.908-7.787,1.319
					l-0.566,0.096l0.316-0.477c2.922-4.399,5.446-8.199,7.289-10.974c0.885-1.298,1.604-2.355,2.145-3.148
					C230.791,325.596,231.077,325.209,231.102,325.225z"/>
			</g>
			<g>
				<path style="fill:#E0E0E0;" d="M205.913,344.601c0.024,0.016-0.215,0.434-0.679,1.19c-0.51,0.814-1.19,1.896-2.025,3.227
					c-1.803,2.8-4.273,6.635-7.133,11.076l-0.25-0.381c2.424-0.418,5.054-0.872,7.783-1.343c2.774-0.47,5.446-0.922,7.905-1.339
					l0.57-0.096l-0.321,0.478c-2.93,4.359-5.458,8.12-7.304,10.866c-0.886,1.285-1.606,2.329-2.148,3.115
					c-0.508,0.72-0.794,1.103-0.819,1.087c-0.024-0.016,0.216-0.429,0.68-1.178c0.512-0.806,1.192-1.877,2.028-3.194
					c1.807-2.772,4.282-6.57,7.149-10.969l0.248,0.381c-2.458,0.424-5.128,0.885-7.901,1.363c-2.731,0.462-5.362,0.908-7.787,1.319
					l-0.566,0.096l0.316-0.477c2.922-4.399,5.446-8.2,7.289-10.974c0.885-1.298,1.604-2.355,2.145-3.148
					C205.603,344.972,205.889,344.586,205.913,344.601z"/>
			</g>
			<g>
				<path style="fill:#E0E0E0;" d="M260.335,324.95c0.024,0.016-0.215,0.433-0.679,1.19c-0.511,0.814-1.19,1.896-2.025,3.227
					c-1.803,2.8-4.273,6.635-7.133,11.076l-0.25-0.381c2.424-0.418,5.054-0.872,7.783-1.343c2.775-0.47,5.446-0.922,7.905-1.339
					l0.57-0.096l-0.321,0.478c-2.93,4.359-5.458,8.12-7.304,10.866c-0.886,1.285-1.606,2.329-2.148,3.115
					c-0.508,0.72-0.794,1.103-0.819,1.087c-0.024-0.016,0.216-0.429,0.68-1.178c0.512-0.806,1.192-1.877,2.028-3.194
					c1.807-2.772,4.282-6.57,7.149-10.969l0.248,0.381c-2.458,0.424-5.128,0.885-7.901,1.363c-2.731,0.462-5.362,0.908-7.787,1.319
					l-0.566,0.096l0.316-0.476c2.922-4.399,5.446-8.2,7.289-10.974c0.885-1.298,1.604-2.355,2.145-3.148
					C260.024,325.321,260.311,324.935,260.335,324.95z"/>
			</g>
			<g>
				<path style="fill:#E0E0E0;" d="M132.886,308.943c0.024,0.016-0.215,0.433-0.679,1.19c-0.51,0.814-1.19,1.896-2.025,3.227
					c-1.803,2.8-4.273,6.636-7.133,11.076l-0.25-0.38c2.424-0.418,5.054-0.872,7.783-1.343c2.775-0.47,5.446-0.922,7.905-1.339
					l0.57-0.096l-0.321,0.478c-2.93,4.359-5.458,8.12-7.304,10.867c-0.886,1.284-1.606,2.329-2.148,3.115
					c-0.508,0.72-0.794,1.103-0.819,1.087c-0.024-0.016,0.216-0.429,0.68-1.178c0.512-0.806,1.192-1.877,2.028-3.194
					c1.807-2.772,4.281-6.57,7.149-10.969l0.248,0.381c-2.458,0.424-5.128,0.885-7.901,1.363c-2.731,0.462-5.362,0.908-7.787,1.319
					l-0.566,0.096l0.316-0.477c2.922-4.399,5.446-8.199,7.289-10.974c0.885-1.298,1.604-2.355,2.145-3.148
					C132.576,309.314,132.862,308.927,132.886,308.943z"/>
			</g>
			<g>
				<path style="fill:#E0E0E0;" d="M93.352,383.716c0.023-0.018,0.345,0.339,0.92,1.016c0.615,0.738,1.433,1.72,2.438,2.927
					c2.101,2.584,4.979,6.124,8.311,10.222l-0.439,0.119c0.356-2.434,0.742-5.074,1.142-7.815c0.416-2.783,0.816-5.462,1.184-7.93
					l0.085-0.571l0.354,0.453c3.232,4.139,6.022,7.712,8.059,10.319c0.946,1.241,1.715,2.25,2.293,3.009
					c0.527,0.707,0.801,1.098,0.778,1.116c-0.023,0.018-0.341-0.338-0.908-1.013c-0.607-0.737-1.414-1.716-2.406-2.92
					c-2.073-2.578-4.914-6.111-8.205-10.204l0.439-0.118c-0.361,2.468-0.752,5.149-1.159,7.934c-0.409,2.74-0.803,5.379-1.166,7.812
					l-0.085,0.568l-0.354-0.449c-3.274-4.144-6.101-7.724-8.166-10.338c-0.959-1.244-1.74-2.257-2.326-3.017
					C93.608,384.127,93.33,383.734,93.352,383.716z"/>
			</g>
			<g>
				<path style="fill:#E0E0E0;" d="M183.645,335.302c0.002,0.029-0.476,0.089-1.359,0.175c-0.957,0.083-2.23,0.193-3.796,0.328
					c-3.321,0.248-7.871,0.587-13.137,0.98l0.153-0.428c1.794,1.683,3.74,3.508,5.761,5.403c2.047,1.932,4.017,3.791,5.831,5.503
					l0.42,0.397l-0.575,0.031c-5.244,0.287-9.77,0.536-13.074,0.717c-1.559,0.067-2.827,0.121-3.78,0.162
					c-0.881,0.029-1.359,0.03-1.361,0.001s0.473-0.086,1.35-0.167c0.951-0.077,2.216-0.18,3.771-0.306
					c3.301-0.228,7.823-0.541,13.062-0.903l-0.154,0.428c-1.82-1.707-3.796-3.56-5.848-5.485c-2.014-1.901-3.955-3.733-5.744-5.421
					l-0.418-0.394l0.571-0.034c5.272-0.318,9.825-0.593,13.15-0.794c1.569-0.076,2.846-0.138,3.805-0.185
					C183.162,335.277,183.643,335.273,183.645,335.302z"/>
			</g>
			<g>
				<path style="fill:#E0E0E0;" d="M161.487,385.704c0.022-0.019,0.352,0.332,0.94,0.997c0.629,0.726,1.466,1.692,2.495,2.879
					c2.151,2.543,5.098,6.025,8.509,10.057l-0.437,0.128c0.308-2.44,0.642-5.088,0.989-7.836c0.361-2.791,0.709-5.477,1.029-7.952
					l0.074-0.573l0.363,0.447c3.313,4.075,6.172,7.592,8.259,10.159c0.97,1.222,1.758,2.216,2.352,2.964
					c0.54,0.696,0.822,1.082,0.8,1.1c-0.022,0.018-0.347-0.332-0.928-0.995c-0.621-0.724-1.447-1.688-2.462-2.872
					c-2.124-2.537-5.033-6.013-8.403-10.041l0.437-0.126c-0.312,2.475-0.652,5.163-1.004,7.955
					c-0.355,2.747-0.698,5.393-1.013,7.833l-0.074,0.569l-0.363-0.442c-3.354-4.079-6.251-7.603-8.367-10.176
					c-0.983-1.225-1.783-2.222-2.385-2.971C161.751,386.11,161.464,385.723,161.487,385.704z"/>
			</g>
			<g>
				<path style="fill:#E0E0E0;" d="M121.884,348.74c0.002,0.029-0.476,0.089-1.359,0.175c-0.957,0.083-2.23,0.193-3.796,0.328
					c-3.321,0.248-7.871,0.587-13.137,0.98l0.153-0.428c1.794,1.683,3.74,3.508,5.761,5.403c2.047,1.932,4.017,3.791,5.831,5.503
					l0.42,0.397l-0.575,0.031c-5.244,0.287-9.77,0.535-13.074,0.717c-1.559,0.067-2.827,0.121-3.78,0.162
					c-0.881,0.028-1.359,0.03-1.361,0.001c-0.002-0.029,0.473-0.086,1.35-0.167c0.951-0.077,2.216-0.18,3.771-0.306
					c3.301-0.228,7.823-0.541,13.062-0.903l-0.155,0.428c-1.82-1.707-3.796-3.56-5.848-5.485c-2.015-1.901-3.955-3.733-5.744-5.421
					l-0.418-0.394l0.571-0.035c5.272-0.318,9.825-0.593,13.15-0.794c1.569-0.076,2.846-0.138,3.805-0.185
					C121.401,348.715,121.882,348.711,121.884,348.74z"/>
			</g>
			<g>
				<path style="fill:#E0E0E0;" d="M155.908,384.569c0.002,0.029-0.476,0.089-1.359,0.175c-0.957,0.083-2.23,0.193-3.796,0.328
					c-3.321,0.248-7.871,0.587-13.137,0.98l0.153-0.428c1.794,1.683,3.74,3.508,5.761,5.403c2.047,1.931,4.017,3.791,5.831,5.503
					l0.42,0.397l-0.575,0.031c-5.244,0.287-9.77,0.536-13.074,0.717c-1.559,0.067-2.827,0.121-3.78,0.162
					c-0.881,0.029-1.359,0.03-1.361,0.001s0.473-0.086,1.35-0.167c0.951-0.077,2.216-0.18,3.771-0.306
					c3.301-0.228,7.823-0.541,13.062-0.903l-0.154,0.428c-1.82-1.707-3.796-3.56-5.848-5.485c-2.015-1.901-3.955-3.733-5.744-5.421
					l-0.418-0.394l0.571-0.034c5.272-0.318,9.825-0.593,13.15-0.794c1.569-0.076,2.846-0.138,3.806-0.185
					C155.424,384.544,155.906,384.54,155.908,384.569z"/>
			</g>
			<g>
				<path style="fill:#E0E0E0;" d="M232.718,293.411c0.002,0.029-0.476,0.089-1.359,0.175c-0.957,0.083-2.23,0.193-3.796,0.328
					c-3.321,0.248-7.871,0.587-13.137,0.979l0.153-0.428c1.794,1.683,3.74,3.508,5.761,5.403c2.047,1.931,4.017,3.791,5.831,5.503
					l0.42,0.396l-0.575,0.031c-5.244,0.288-9.77,0.536-13.074,0.717c-1.559,0.067-2.827,0.121-3.78,0.162
					c-0.881,0.029-1.359,0.03-1.361,0.001c-0.002-0.029,0.473-0.086,1.35-0.167c0.951-0.077,2.216-0.18,3.771-0.306
					c3.301-0.228,7.823-0.541,13.062-0.903l-0.155,0.428c-1.82-1.707-3.796-3.56-5.848-5.485c-2.014-1.901-3.955-3.733-5.744-5.421
					l-0.418-0.394l0.571-0.034c5.272-0.318,9.825-0.593,13.15-0.794c1.569-0.076,2.846-0.138,3.805-0.185
					C232.234,293.387,232.716,293.382,232.718,293.411z"/>
			</g>
		</g>
		<g>
			<path style="fill:#FFBE9D;" d="M195.356,384.569c0,0,16.826-4.847,22.393-6.267c2.17-0.553,11.464,4.349,17.882,8.425
				c0,0,8.84,5.241,8.125,6.856c-0.787,1.777-4.048,1.413-9.245-1.031c0,0,1.813,5.267-1.747,5.153c0,0,1.766,5.692-1.57,6.281
				c-3.337,0.589-4.122-6.674-7.066-7.066c-2.944-0.393-9.029-0.785-9.029-0.785s-5.067,8.392-8.993,8.98
				c-3.926,0.589-13.022-0.472-13.022-0.472L195.356,384.569z"/>
			<g>
				<path style="fill:#EB996E;" d="M224.073,385.729c0.077-0.122,2.181,1.068,4.699,2.656c2.519,1.589,4.499,2.975,4.422,3.097
					c-0.077,0.121-2.18-1.067-4.7-2.656C225.976,387.237,223.996,385.851,224.073,385.729z"/>
			</g>
			<g>
				<path style="fill:#EB996E;" d="M223.078,388.965c0.06-0.131,2.558,0.894,5.579,2.288c3.022,1.395,5.421,2.631,5.361,2.761
					c-0.06,0.13-2.558-0.894-5.579-2.288C225.418,390.332,223.017,389.095,223.078,388.965z"/>
			</g>
			<g>
				<path style="fill:#EB996E;" d="M224.879,396.81c0.02-0.143,1.72-0.027,3.798,0.257c2.078,0.285,3.747,0.631,3.727,0.774
					c-0.02,0.142-1.719,0.027-3.798-0.258C226.528,397.299,224.859,396.952,224.879,396.81z"/>
			</g>
		</g>
		<g>
			<g>
				<path style="fill:#263238;" d="M173.47,211.016c0.391,1.287-0.055,2.788-1.085,3.653c-1.03,0.865-2.586,1.044-3.786,0.436
					c-2.28-1.156-2.569-4.301-2.12-6.818c0.448-2.516,1.304-5.202,0.249-7.53c-0.807-1.781-2.556-2.909-3.92-4.311
					c-2.376-2.442-3.642-6.001-3.064-9.358c0.578-3.358,3.096-6.376,6.377-7.293c3.35-0.937,7.477,0.092,9.971-2.332
					c1.807-1.757,1.918-4.637,3.317-6.734c2.171-3.256,6.76-3.773,10.638-3.243c3.877,0.53,7.825,1.774,11.623,0.829
					c3.172-0.789,5.775-3.004,8.747-4.364c6.443-2.947,14.678-1.351,19.554,3.79c4.876,5.141,6.034,13.449,2.75,19.727
					c-1.179,2.255-2.955,4.304-5.315,5.258"/>
				<g>
					<g>
						<g>
							<g>
								<path style="fill:#FFBE9D;" d="M192.766,293.615L192.766,293.615c10.743-0.011,19.404-8.802,19.256-19.544l-0.254-18.384
									c0,0,15.444-1.547,16.467-16.847c1.023-15.301,0.285-50.604,0.285-50.604l0,0c-17.309-8.583-37.907-7.126-53.836,3.808
									l-2.364,1.623l1.15,80.945C173.62,285.158,182.218,293.626,192.766,293.615z"/>
							</g>
							<g>
								<g>
									<path style="fill:#263238;" d="M224.462,215.949c-2.718-0.537-2.698-4.047,0.026-4.554c0.12-0.022,0.253-0.021,0.372,0.002
										c2.718,0.537,2.698,4.048-0.026,4.554C224.714,215.973,224.581,215.973,224.462,215.949z"/>
								</g>
								<g>
									<g>
										<path style="fill:#263238;" d="M227.465,211.064c-0.254,0.252-1.695-0.987-3.803-1.112
											c-2.107-0.156-3.698,0.881-3.917,0.598c-0.107-0.127,0.158-0.592,0.853-1.063c0.683-0.469,1.835-0.894,3.148-0.807
											c1.313,0.087,2.398,0.661,3.013,1.217C227.387,210.456,227.587,210.952,227.465,211.064z"/>
									</g>
								</g>
							</g>
							<g>
								<g>
									<path style="fill:#263238;" d="M203.069,211.579c1.011,0.7,1.263,2.087,0.563,3.098c-0.7,1.011-2.087,1.263-3.098,0.563
										c-1.011-0.7-1.263-2.087-0.563-3.098C200.671,211.13,202.058,210.878,203.069,211.579z"/>
								</g>
								<g>
									<g>
										<path style="fill:#263238;" d="M204.458,211.673c-0.255,0.252-1.695-0.987-3.803-1.112
											c-2.107-0.156-3.698,0.881-3.917,0.597c-0.108-0.127,0.157-0.592,0.853-1.063c0.683-0.469,1.835-0.894,3.148-0.807
											c1.313,0.088,2.398,0.662,3.012,1.217C204.38,211.066,204.581,211.562,204.458,211.673z"/>
									</g>
								</g>
							</g>
							<g>
								<g>
									<path style="fill:#263238;" d="M211.966,229.531c-0.005-0.166,1.313-0.359,3.449-0.537c0.555-0.03,0.995-0.131,1.051-0.426
										c0.117-0.328-0.064-0.929-0.309-1.601c-0.467-1.424-0.939-2.866-1.434-4.376c-1.971-6.23-3.313-11.361-2.996-11.461
										c0.316-0.1,2.17,4.868,4.142,11.098c0.464,1.52,0.906,2.971,1.344,4.404c0.168,0.649,0.511,1.415,0.177,2.309
										c-0.177,0.447-0.629,0.753-0.998,0.829c-0.371,0.091-0.683,0.074-0.948,0.072
										C213.3,229.804,211.972,229.697,211.966,229.531z"/>
								</g>
							</g>
							<g>
								<path style="fill:#FFFFFF;" d="M204.988,231.487c2.702,1.25,5.925,2.809,10.178,3.568c0,0-2.677,3.801-7.003,1.945
									C203.672,235.074,204.988,231.487,204.988,231.487z"/>
							</g>
							<g>
								<path style="fill:#EB996E;" d="M211.805,255.467c0,0-9.719,0.26-19.652-6.76c0,0,4.118,11.276,19.471,10.729
									L211.805,255.467z"/>
							</g>
						</g>
					</g>
				</g>
				<path style="fill:#263238;" d="M228.625,192.104c0,0-9.241,4.697-21.499-1.126c-8.044-3.821-17.368-5.583-19.384-3.942
					c-2.016,1.642-2.289,9.859-10.134,12.409c0,0,0.847,15.651-5.409,15.214c-6.255-0.437-2.824-24.77-2.824-24.77l15.131-7.758
					l16.609-3.474l15.751,1.909l12.218,3.091L228.625,192.104z"/>
				<g>
					<g>
						<path style="fill:#FFBE9D;" d="M173.342,209.628c-0.255-0.127-10.351-3.685-10.587,6.801
							c-0.236,10.486,10.34,8.56,10.365,8.26C173.146,224.389,173.342,209.628,173.342,209.628z"/>
					</g>
					<g>
						<g>
							<path style="fill:#EB996E;" d="M170.007,220.644c-0.045-0.035-0.186,0.124-0.497,0.258c-0.304,0.131-0.824,0.214-1.366-0.003
								c-1.099-0.432-1.992-2.211-2-4.102c-0.006-0.955,0.215-1.86,0.57-2.604c0.337-0.76,0.846-1.284,1.406-1.371
								c0.558-0.116,0.945,0.227,1.067,0.525c0.134,0.296,0.063,0.504,0.118,0.523c0.029,0.027,0.229-0.17,0.155-0.605
								c-0.039-0.209-0.156-0.459-0.398-0.666c-0.247-0.21-0.615-0.323-1.004-0.29c-0.81,0.038-1.554,0.765-1.945,1.583
								c-0.435,0.82-0.705,1.836-0.699,2.909c0.02,2.114,1.057,4.116,2.563,4.588c0.733,0.209,1.354,0.001,1.677-0.24
								C169.983,220.897,170.043,220.664,170.007,220.644z"/>
						</g>
					</g>
				</g>
				<g>
					<path style="fill:#263238;" d="M168.004,176.8c-0.058-0.122,1.664-0.615,3.637,0.135c1.982,0.726,2.961,2.226,2.837,2.28
						c-0.115,0.108-1.191-1.13-3.019-1.792C169.644,176.727,168.02,176.957,168.004,176.8z"/>
				</g>
				<g>
					<path style="fill:#263238;" d="M174.311,170.52c0.184,0.012-0.104,2.211,0.262,4.834c0.356,2.645,1.604,4.486,1.464,4.569
						c-0.05,0.035-0.433-0.373-0.879-1.158c-0.436-0.784-0.909-1.966-1.1-3.334C173.68,172.685,174.212,170.497,174.311,170.52z"/>
				</g>
				<g>
					<path style="fill:#263238;" d="M217.398,206.028c-0.055-0.123,0.394-0.484,1.244-0.832c0.846-0.348,2.105-0.644,3.515-0.632
						c1.41,0.016,2.664,0.336,3.503,0.701c0.843,0.365,1.285,0.734,1.227,0.856c-0.129,0.278-2.148-0.511-4.74-0.516
						C219.556,205.56,217.521,206.308,217.398,206.028z"/>
				</g>
				<g>
					<path style="fill:#263238;" d="M194.016,203.822c-0.055-0.123,0.394-0.484,1.244-0.832c0.846-0.348,2.105-0.644,3.515-0.632
						c1.41,0.016,2.664,0.336,3.503,0.701c0.844,0.365,1.285,0.734,1.228,0.856c-0.129,0.278-2.148-0.511-4.74-0.516
						C196.174,203.354,194.139,204.102,194.016,203.822z"/>
				</g>
			</g>
			<g>
				<g>
					<path style="fill:#263238;" d="M215.593,207.676c0.013,0.013,0.025,0.227,0.04,0.62c0.013,0.444,0.03,1.004,0.051,1.692
						c0.016,0.743,0.034,1.62,0.055,2.625c0.004,1.013,0.065,2.192,0.499,3.401c0.418,1.205,1.141,2.443,2.211,3.494
						c1.079,1.033,2.491,1.894,4.133,2.27c0.815,0.193,1.681,0.287,2.557,0.224c0.876-0.041,1.767-0.218,2.616-0.552
						c1.713-0.628,3.264-1.864,4.313-3.489c1.004-1.552,1.454-3.361,1.406-5.119c0.005-1.789,0.009-3.517,0.014-5.167l0.242,0.242
						c-5.239-0.048-9.723-0.088-12.977-0.118c-1.561-0.027-2.825-0.049-3.768-0.066c-0.404-0.012-0.739-0.021-1.019-0.03
						C215.729,207.696,215.602,207.686,215.593,207.676c-0.019-0.019,0.43-0.038,1.285-0.058c0.93-0.016,2.175-0.038,3.713-0.066
						c3.294-0.03,7.833-0.07,13.137-0.118l0.241-0.002l0.001,0.244c0.004,1.649,0.009,3.378,0.014,5.167
						c0.059,1.816-0.415,3.766-1.479,5.401c-1.11,1.721-2.756,3.026-4.571,3.685c-0.9,0.349-1.844,0.532-2.769,0.571
						c-0.926,0.061-1.839-0.043-2.697-0.254c-1.729-0.411-3.206-1.332-4.324-2.429c-1.108-1.116-1.845-2.423-2.257-3.686
						c-0.428-1.269-0.466-2.489-0.44-3.541c0.021-1.031,0.039-1.931,0.055-2.693c0.021-0.678,0.037-1.231,0.051-1.669
						C215.567,207.853,215.58,207.664,215.593,207.676z"/>
				</g>
				<g>
					<path style="fill:#263238;" d="M191.076,207.159c0.013,0.013,0.025,0.227,0.04,0.62c0.013,0.444,0.03,1.004,0.051,1.692
						c0.015,0.743,0.034,1.62,0.055,2.625c0.004,1.013,0.065,2.192,0.499,3.401c0.417,1.205,1.141,2.443,2.211,3.495
						c1.079,1.033,2.491,1.894,4.133,2.27c0.815,0.193,1.681,0.287,2.557,0.224c0.876-0.041,1.767-0.218,2.616-0.552
						c1.713-0.628,3.264-1.864,4.313-3.489c1.004-1.552,1.454-3.361,1.406-5.119c0.005-1.789,0.009-3.517,0.014-5.167l0.242,0.242
						c-5.24-0.048-9.723-0.088-12.977-0.118c-1.561-0.027-2.825-0.049-3.768-0.066c-0.404-0.012-0.739-0.021-1.019-0.03
						C191.213,207.178,191.086,207.169,191.076,207.159c-0.019-0.019,0.43-0.038,1.285-0.059c0.93-0.016,2.175-0.038,3.713-0.066
						c3.294-0.03,7.833-0.07,13.137-0.118l0.241-0.002l0.001,0.244c0.004,1.649,0.009,3.378,0.014,5.167
						c0.059,1.816-0.415,3.766-1.479,5.401c-1.11,1.721-2.756,3.026-4.571,3.685c-0.9,0.349-1.844,0.532-2.769,0.571
						c-0.926,0.061-1.839-0.043-2.697-0.254c-1.729-0.411-3.206-1.332-4.324-2.429c-1.108-1.116-1.845-2.423-2.257-3.686
						c-0.429-1.269-0.466-2.489-0.44-3.541c0.021-1.031,0.039-1.931,0.055-2.693c0.021-0.678,0.037-1.231,0.051-1.669
						C191.051,207.336,191.064,207.146,191.076,207.159z"/>
				</g>
				<g>
					<path style="fill:#263238;" d="M215.813,208.405c0,0.144-1.546,0.26-3.452,0.26c-1.907,0-3.453-0.117-3.453-0.26
						c0-0.144,1.546-0.26,3.453-0.26C214.268,208.145,215.813,208.261,215.813,208.405z"/>
				</g>
				<g>
					<path style="fill:#263238;" d="M171.955,208.542c0-0.144,4.28-0.273,9.56-0.289c5.281-0.016,9.562,0.088,9.562,0.231
						c0.001,0.144-4.279,0.273-9.561,0.289C176.237,208.79,171.955,208.686,171.955,208.542z"/>
				</g>
			</g>
		</g>
	</g>
</g>
<g id="Shield">
	<g>
		<g>
			<g>
				<g>
					<path style="fill:#E8505B;" d="M364.092,220.965l-29.769-10.691l-29.48,10.546c-3.763,1.778-7.064,2.842-7.064,6.348v17.456
						c0,12.122,3.176,24.135,9.711,34.74c5.499,8.924,14.014,18.113,27.122,23.954c12.05-3.914,21.045-14.349,26.544-23.273
						c6.535-10.605,9.711-22.618,9.711-34.74v-15.697C370.867,224.609,368.217,222.167,364.092,220.965z"/>
				</g>
			</g>
			<g style="opacity:0.3;">
				<path d="M334.612,293.189c-10.371-4.621-17.108-12.046-21.458-19.107c-5.17-8.391-7.683-17.895-7.683-27.486v-12.245
					c0-2.774,1.673-5.372,4.996-6.923l23.862-8.922l-0.005-8.232l-29.48,10.546c-3.094,1.352-7.064,2.842-7.064,6.348v17.456
					c0,12.122,3.176,24.135,9.711,34.74c5.499,8.924,14.014,18.113,27.122,23.954V293.189z"/>
			</g>
			<g style="opacity:0.4;">
				<path d="M334.612,303.319c2.088-0.699,4.006-1.504,5.848-2.508c4.942-2.692,9.158-6.39,12.376-9.736
					c3.599-3.743,6.281-7.788,8.609-11.566c6.535-10.605,9.711-22.618,9.422-35.075l0.018-14.412
					c-0.018-7.176-3.699-7.706-6.793-9.057l-29.769-10.691l0.005,8.232l24.14,9.066c3.323,1.551,4.996,4.149,4.996,6.923v12.245
					c0,9.591-2.513,19.095-7.683,27.486c-4.351,7.061-10.798,14.342-21.169,18.963V303.319z"/>
			</g>
		</g>
		<path style="opacity:0.5;fill:#FFFFFF;" d="M342.22,245.811l0.033-2.356c0-4.262-3.467-7.729-7.729-7.729
			c-4.262,0-7.729,3.467-7.729,7.717l-0.034,2.4c-2.086,0.309-3.688,2.101-3.688,4.273v13.896c0,2.389,1.936,4.325,4.325,4.325
			h14.426c2.389,0,4.325-1.936,4.325-4.325v-13.896C346.15,247.861,344.423,246.011,342.22,245.811z M336.585,260.553h-3.773
			l0.589-2.725c-0.653-0.406-1.09-1.128-1.09-1.953c0-1.27,1.03-2.3,2.301-2.3c1.27,0,2.3,1.03,2.3,2.3
			c0,0.796-0.404,1.497-1.018,1.91C336.161,258.841,336.585,260.553,336.585,260.553z M340.555,245.791h-12.127l0.033-2.336
			c0-3.343,2.72-6.064,6.064-6.064c3.344,0,6.064,2.72,6.064,6.052L340.555,245.791z"/>
		<g>
			<path style="fill:#FFFFFF;" d="M310.294,245.641c-0.066,0.009-0.272-0.909-0.446-2.418c-0.179-1.507-0.311-3.608-0.242-5.926
				c0.033-1.159,0.11-2.262,0.215-3.261c0.096-0.998,0.279-1.934,0.665-2.634c0.378-0.704,0.907-1.124,1.304-1.31
				c0.404-0.188,0.656-0.179,0.659-0.15c0.05,0.065-1.006,0.273-1.634,1.626c-0.31,0.654-0.447,1.524-0.516,2.513
				c-0.078,0.992-0.14,2.085-0.172,3.232c-0.068,2.295,0.004,4.375,0.088,5.88C310.294,244.698,310.371,245.631,310.294,245.641z"/>
		</g>
		<g>
			<path style="fill:#FFFFFF;" d="M310.732,253.24c-0.144,0.003-0.275-0.714-0.292-1.602c-0.017-0.888,0.085-1.609,0.229-1.612
				c0.144-0.003,0.274,0.714,0.292,1.602C310.978,252.515,310.875,253.237,310.732,253.24z"/>
		</g>
	</g>
</g>
<g id="Device">
	<g>
		<polygon style="fill:#263238;" points="279.324,325.225 246.129,407.313 186.275,407.313 186.275,411.018 364.551,411.018 
			401.016,325.225 		"/>
		<path style="fill:#FAFAFA;" d="M330.063,373.689c-1.203,4.131-4.705,6.745-7.823,5.837c-3.118-0.908-4.67-4.992-3.467-9.124
			c1.203-4.131,4.705-6.745,7.823-5.837C329.714,365.472,331.266,369.557,330.063,373.689z"/>
	</g>
</g>
</svg>
